<?xml version="1.0" encoding="UTF-8"?>
<svg version="1.1" xmlns="http://www.w3.org/2000/svg" width="1014" height="759">
<path d="M0 0 C334.62 0 669.24 0 1014 0 C1014 250.47 1014 500.94 1014 759 C679.38 759 344.76 759 0 759 C0 508.53 0 258.06 0 0 Z " fill="#000000" transform="translate(0,0)"/>
<path d="M0 0 C12.54 0 25.08 0 38 0 C38 0.66 38 1.32 38 2 C40.97 2 43.94 2 47 2 C47 2.66 47 3.32 47 4 C49.31 4 51.62 4 54 4 C54 4.66 54 5.32 54 6 C55.65 6 57.3 6 59 6 C59 6.66 59 7.32 59 8 C60.32 8 61.64 8 63 8 C63 8.66 63 9.32 63 10 C64.65 10 66.3 10 68 10 C68 10.66 68 11.32 68 12 C69.32 12 70.64 12 72 12 C72 12.66 72 13.32 72 14 C72.99 14 73.98 14 75 14 C75 14.66 75 15.32 75 16 C75.99 16 76.98 16 78 16 C78 16.66 78 17.32 78 18 C79.32 18 80.64 18 82 18 C82 18.99 82 19.98 82 21 C83.32 21 84.64 21 86 21 C86 21.66 86 22.32 86 23 C86.99 23 87.98 23 89 23 C90.33333333 24.33333333 91.66666667 25.66666667 93 27 C93.680625 27.144375 94.36125 27.28875 95.0625 27.4375 C97.99789893 28.28971259 98.44292817 30.38634372 100 33 C102.06567155 35.10673858 104.19083657 37.12809008 106.35546875 39.1328125 C108 41 108 41 108 44 C108.99 44.33 109.98 44.66 111 45 C111 45.66 111 46.32 111 47 C111.99 47 112.98 47 114 47 C114 48.65 114 50.3 114 52 C114.66 52 115.32 52 116 52 C117.0076952 53.7664657 118.00591714 55.53833823 119 57.3125 C119.556875 58.29863281 120.11375 59.28476562 120.6875 60.30078125 C122 63 122 63 122 66 C122.66 66 123.32 66 124 66 C124 67.32 124 68.64 124 70 C124.66 70 125.32 70 126 70 C126 71.32 126 72.64 126 74 C126.66 74 127.32 74 128 74 C128.98248524 78.0527516 129.08159574 81.83861737 129 86 C129.99 86 130.98 86 132 86 C132.22786458 88.05078125 132.45572917 90.1015625 132.68359375 92.15234375 C132.81886614 94.01140229 132.81886614 94.01140229 134 95 C136.32817964 95.36760731 138.6618385 95.70241581 141 96 C141 96.66 141 97.32 141 98 C142.65 98 144.3 98 146 98 C146 98.66 146 99.32 146 100 C147.65 100 149.3 100 151 100 C151 100.66 151 101.32 151 102 C152.32 102 153.64 102 155 102 C155 102.66 155 103.32 155 104 C155.99 104 156.98 104 158 104 C158 104.66 158 105.32 158 106 C160.31 106.33 162.62 106.66 165 107 C165 107.66 165 108.32 165 109 C165.66 109 166.32 109 167 109 C167.33 109.66 167.66 110.32 168 111 C168.61359375 111.12503906 169.2271875 111.25007813 169.859375 111.37890625 C172.72121208 112.20925679 173.53447136 113.54182491 175.25 115.9375 C175.77078125 116.64777344 176.2915625 117.35804688 176.828125 118.08984375 C178 120 178 120 178 122 C178.86625 122.0928125 178.86625 122.0928125 179.75 122.1875 C182.92448483 123.33384174 184.12848575 125.25956842 186 128 C186 128.66 186 129.32 186 130 C186.99 130.33 187.98 130.66 189 131 C190.64820195 133.60242414 191 134.86248779 191 138 C191.66 138 192.32 138 193 138 C193 139.32 193 140.64 193 142 C193.99 142.33 194.98 142.66 196 143 C196 144.32 196 145.64 196 147 C196.66 147 197.32 147 198 147 C198 148.65 198 150.3 198 152 C198.66 152 199.32 152 200 152 C200 153.65 200 155.3 200 157 C200.66 157 201.32 157 202 157 C202 160.3 202 163.6 202 167 C202.66 167 203.32 167 204 167 C204.02506235 170.92861947 204.04302799 174.85720679 204.05493164 178.78588867 C204.0623244 180.76547892 204.07504274 182.74504701 204.08789062 184.72460938 C204.10684583 192.21191564 203.86051378 199.55999977 203 207 C202.34 207 201.68 207 201 207 C201 209.31 201 211.62 201 214 C200.34 214 199.68 214 199 214 C199 215.65 199 217.3 199 219 C198.34 219 197.68 219 197 219 C196.896875 220.258125 196.79375 221.51625 196.6875 222.8125 C196.25432526 226.29010006 195.77903411 227.75539553 193 230 C190.88883062 233.20897745 189.33636024 236.40210705 188 240 C187.34 240 186.68 240 186 240 C186 240.66 186 241.32 186 242 C185.34 242 184.68 242 184 242 C184 242.66 184 243.32 184 244 C183.34 244 182.68 244 182 244 C182 244.66 182 245.32 182 246 C181.34 246 180.68 246 180 246 C180 246.66 180 247.32 180 248 C179.34 248 178.68 248 178 248 C177.34 249.32 176.68 250.64 176 252 C175.34 252 174.68 252 174 252 C174 252.66 174 253.32 174 254 C173.38125 254.0825 172.7625 254.165 172.125 254.25 C169.83647371 254.79948083 169.83647371 254.79948083 168.875 256.9375 C168.58625 257.618125 168.2975 258.29875 168 259 C167.34 259.66 166.68 260.32 166 261 C164.68 261 163.36 261 162 261 C161.67 261.99 161.34 262.98 161 264 C156.03599664 268.32759267 151.45554055 268.74484029 145 269 C145 269.66 145 270.32 145 271 C140.8794254 272.99785435 137.54805635 273.17835515 133 273 C133 273.66 133 274.32 133 275 C129.37 275 125.74 275 122 275 C122 275.66 122 276.32 122 277 C120.91893982 277.00808685 119.83787964 277.01617371 118.72406006 277.02450562 C108.5416286 277.10195278 98.35933099 277.18968852 88.17707443 277.28752708 C82.94213263 277.33749674 77.70721107 277.38382681 72.47216797 277.421875 C67.42112199 277.45871922 62.37024511 277.50507698 57.31934357 277.55806351 C55.39124769 277.57661202 53.46311556 277.59171829 51.53496552 277.60334396 C48.83661032 277.6201985 46.13864282 277.64923172 43.44042969 277.68115234 C42.24172997 277.68439262 42.24172997 277.68439262 41.01881409 277.68769836 C35.67359953 277.7120388 35.67359953 277.7120388 31 280 C30.835 280.825 30.67 281.65 30.5 282.5 C30.335 283.325 30.17 284.15 30 285 C28.66666667 285.66666667 27.33333333 286.33333333 26 287 C25.32041397 289.39719432 25.32041397 289.39719432 25 292 C24.25 294.1875 24.25 294.1875 23 296 C21.7315625 296.4640625 21.7315625 296.4640625 20.4375 296.9375 C19.633125 297.288125 18.82875 297.63875 18 298 C17.25475806 300.47608101 17.25475806 300.47608101 17 303 C16.34 303.66 15.68 304.32 15 305 C14.3574765 307.06874034 14.3574765 307.06874034 14 309 C13.34 309 12.68 309 12 309 C11.67 309.99 11.34 310.98 11 312 C10.34 312 9.68 312 9 312 C9 313.32 9 314.64 9 316 C8.34 316 7.68 316 7 316 C7 316.66 7 317.32 7 318 C6.34 318.33 5.68 318.66 5 319 C4.34786708 321.02463255 4.34786708 321.02463255 4 323 C3.34 323 2.68 323 2 323 C1.67 323.99 1.34 324.98 1 326 C0.34 326 -0.32 326 -1 326 C-1 327.32 -1 328.64 -1 330 C-2.32 330.33 -3.64 330.66 -5 331 C-5 331.99 -5 332.98 -5 334 C13.48 334 31.96 334 51 334 C49.27899083 340.88403667 44.01838525 345.23212511 38.6875 349.6875 C35.71451042 352.19470204 33.94544412 354.10004302 33 358 C32.34 358 31.68 358 31 358 C31 358.66 31 359.32 31 360 C29.35546875 361.62109375 29.35546875 361.62109375 27.1875 363.4375 C22.3420576 367.42614601 22.3420576 367.42614601 18.59765625 372.38671875 C16.83068483 375.27694829 14.8380042 377.42781461 12.4375 379.8125 C11.65246094 380.60269531 10.86742187 381.39289063 10.05859375 382.20703125 C8 384 8 384 6 384 C5.835 384.845625 5.67 385.69125 5.5 386.5625 C3.67942386 390.73465365 1.35824254 392.50255925 -2.10546875 395.3359375 C-4.34628737 397.30416169 -5.58893973 399.38953851 -7 402 C-9.0625 404.3125 -9.0625 404.3125 -11 406 C-11.66 406 -12.32 406 -13 406 C-13 406.66 -13 407.32 -13 408 C-13.66 408 -14.32 408 -15 408 C-15 408.66 -15 409.32 -15 410 C-15.66 410 -16.32 410 -17 410 C-17.103125 410.598125 -17.20625 411.19625 -17.3125 411.8125 C-18.09824033 414.31258286 -18.96918853 415.37535082 -21 417 C-21.66 417 -22.32 417 -23 417 C-23.268125 417.598125 -23.53625 418.19625 -23.8125 418.8125 C-25.00572423 421.01054464 -26.24678871 422.24678871 -28 424 C-28.495 424.86625 -28.99 425.7325 -29.5 426.625 C-31 429 -31 429 -34 430 C-34 430.66 -34 431.32 -34 432 C-35.49609375 433.4375 -35.49609375 433.4375 -37.4375 435 C-40.15188238 437.14525044 -40.15188238 437.14525044 -42 440 C-42.66 440 -43.32 440 -44 440 C-44.2475 440.598125 -44.495 441.19625 -44.75 441.8125 C-46 444 -46 444 -48 445.4375 C-50.20749308 446.88818687 -50.20749308 446.88818687 -51 449.5625 C-52 452 -52 452 -54.125 453.3125 C-54.74375 453.539375 -55.3625 453.76625 -56 454 C-56 454.66 -56 455.32 -56 456 C-56.66 456 -57.32 456 -58 456 C-58 456.66 -58 457.32 -58 458 C-58.66 458 -59.32 458 -60 458 C-60 458.66 -60 459.32 -60 460 C-60.66 460 -61.32 460 -62 460 C-62 460.66 -62 461.32 -62 462 C-62.66 462 -63.32 462 -64 462 C-64.0825 462.556875 -64.165 463.11375 -64.25 463.6875 C-65.24709896 466.76188846 -66.79229454 468.66242952 -69 471 C-69.99 471 -70.98 471 -72 471 C-72 471.99 -72 472.98 -72 474 C-73.875 476.1875 -73.875 476.1875 -76 478 C-76.66 478 -77.32 478 -78 478 C-78.33 478.99 -78.66 479.98 -79 481 C-79.66 481 -80.32 481 -81 481 C-80.67 479.02 -80.34 477.04 -80 475 C-79.34 475 -78.68 475 -78 475 C-77.67 473.35 -77.34 471.7 -77 470 C-76.34 470 -75.68 470 -75 470 C-74.855625 468.9275 -74.71125 467.855 -74.5625 466.75 C-74.16250558 464.08337051 -73.72408076 461.58600271 -73 459 C-72.34 459 -71.68 459 -71 459 C-71 457.68 -71 456.36 -71 455 C-70.34 455 -69.68 455 -69 455 C-68.86722656 454.38511719 -68.73445312 453.77023437 -68.59765625 453.13671875 C-68.42105469 452.32847656 -68.24445313 451.52023437 -68.0625 450.6875 C-67.88847656 449.88699219 -67.71445312 449.08648438 -67.53515625 448.26171875 C-67 446 -67 446 -66 443 C-65.34 443 -64.68 443 -64 443 C-64 441.68 -64 440.36 -64 439 C-63.34 439 -62.68 439 -62 439 C-61.87625 437.783125 -61.7525 436.56625 -61.625 435.3125 C-61.21108694 431.93520941 -60.45426549 429.10243305 -59 426 C-58.34 426 -57.68 426 -57 426 C-57 424.68 -57 423.36 -57 422 C-56.34 422 -55.68 422 -55 422 C-55 420.35 -55 418.7 -55 417 C-54.34 417 -53.68 417 -53 417 C-52.814375 416.2265625 -52.814375 416.2265625 -52.625 415.4375 C-51.81358372 412.27297649 -50.9054087 409.13875015 -50 406 C-49.34 406 -48.68 406 -48 406 C-47.9175 405.21625 -47.835 404.4325 -47.75 403.625 C-46.75634931 398.822355 -44.91286482 394.50190511 -43 390 C-42.34 390 -41.68 390 -41 390 C-40.81630859 388.92685547 -40.81630859 388.92685547 -40.62890625 387.83203125 C-39.98864625 384.94887287 -39.06448444 382.41407527 -37.9375 379.6875 C-37.57527344 378.80449219 -37.21304688 377.92148437 -36.83984375 377.01171875 C-36.56269531 376.34785156 -36.28554688 375.68398438 -36 375 C-35.34 375 -34.68 375 -34 375 C-34 373.68 -34 372.36 -34 371 C-52.81 371 -71.62 371 -91 371 C-89.875 362 -89.875 362 -87.9375 357.5 C-87.57527344 356.6440625 -87.21304688 355.788125 -86.83984375 354.90625 C-86.56269531 354.2771875 -86.28554688 353.648125 -86 353 C-85.01 353 -84.02 353 -83 353 C-82.67 350.03 -82.34 347.06 -82 344 C-81.34 344 -80.68 344 -80 344 C-79.855625 343.113125 -79.71125 342.22625 -79.5625 341.3125 C-79.08980022 338.52882354 -78.56929815 335.76516243 -78 333 C-77.34 333 -76.68 333 -76 333 C-76 331.68 -76 330.36 -76 329 C-75.34 329 -74.68 329 -74 329 C-74 327.35 -74 325.7 -74 324 C-73.34 324 -72.68 324 -72 324 C-71.92652344 323.04287109 -71.92652344 323.04287109 -71.8515625 322.06640625 C-71.77679687 321.24011719 -71.70203125 320.41382813 -71.625 319.5625 C-71.52058594 318.32693359 -71.52058594 318.32693359 -71.4140625 317.06640625 C-71.27742187 316.38449219 -71.14078125 315.70257812 -71 315 C-70.34 314.67 -69.68 314.34 -69 314 C-68.34786708 311.97536745 -68.34786708 311.97536745 -68 310 C-67.34 310 -66.68 310 -66 310 C-65.92652344 308.93458984 -65.92652344 308.93458984 -65.8515625 307.84765625 C-65.73941406 306.46900391 -65.73941406 306.46900391 -65.625 305.0625 C-65.55539062 304.14597656 -65.48578125 303.22945312 -65.4140625 302.28515625 C-65.27742187 301.53105469 -65.14078125 300.77695312 -65 300 C-64.34 299.67 -63.68 299.34 -63 299 C-62.31270746 296.88153715 -62.31270746 296.88153715 -61.875 294.4375 C-61.62363281 293.19806641 -61.62363281 293.19806641 -61.3671875 291.93359375 C-61.24601563 291.29550781 -61.12484375 290.65742188 -61 290 C-60.34 290 -59.68 290 -59 290 C-58.855625 289.278125 -58.71125 288.55625 -58.5625 287.8125 C-57.78125 283.90625 -57.78125 283.90625 -57 280 C-56.01 280 -55.02 280 -54 280 C-54 279.01 -54 278.02 -54 277 C-94.26 277 -134.52 277 -176 277 C-176 276.34 -176 275.68 -176 275 C-178.97 275 -181.94 275 -185 275 C-185 274.34 -185 273.68 -185 273 C-186.98 273 -188.96 273 -191 273 C-191 272.34 -191 271.68 -191 271 C-192.65 271 -194.3 271 -196 271 C-196 270.34 -196 269.68 -196 269 C-198.64 268.67 -201.28 268.34 -204 268 C-204 267.34 -204 266.68 -204 266 C-205.32 266 -206.64 266 -208 266 C-208.66 265.01 -209.32 264.02 -210 263 C-211.33076989 262.65657551 -212.66431979 262.32380126 -214 262 C-215.75 260.625 -215.75 260.625 -217 259 C-217 258.01 -217 257.02 -217 256 C-218.32 255.67 -219.64 255.34 -221 255 C-221 254.34 -221 253.68 -221 253 C-221.58265625 252.75121094 -222.1653125 252.50242187 -222.765625 252.24609375 C-225.31507622 250.82428441 -226.83616159 249.25850689 -228.75 247.0625 C-229.36359375 246.37285156 -229.9771875 245.68320312 -230.609375 244.97265625 C-232 243 -232 243 -232 240 C-232.66 240 -233.32 240 -234 240 C-236 237 -236 237 -236 233 C-236.66 233 -237.32 233 -238 233 C-238 231.68 -238 230.36 -238 229 C-238.66 229 -239.32 229 -240 229 C-240 227.35 -240 225.7 -240 224 C-240.66 224 -241.32 224 -242 224 C-242 222.68 -242 221.36 -242 220 C-242.66 220 -243.32 220 -244 220 C-244 217.36 -244 214.72 -244 212 C-244.66 212 -245.32 212 -246 212 C-246 201.77 -246 191.54 -246 181 C-245.34 181 -244.68 181 -244 181 C-244 178.03 -244 175.06 -244 172 C-243.34 172 -242.68 172 -242 172 C-242 170.02 -242 168.04 -242 166 C-241.34 166 -240.68 166 -240 166 C-240 164.68 -240 163.36 -240 162 C-239.34 162 -238.68 162 -238 162 C-237.34 159.03 -236.68 156.06 -236 153 C-235.34 153 -234.68 153 -234 153 C-234 152.34 -234 151.68 -234 151 C-233.34 150.67 -232.68 150.34 -232 150 C-231.896875 149.401875 -231.79375 148.80375 -231.6875 148.1875 C-230.69501392 145.02958976 -228.59331865 143.99022129 -226 142 C-224.948125 140.6696875 -224.948125 140.6696875 -223.875 139.3125 C-222 137 -222 137 -219 136 C-218.360625 135.154375 -217.72125 134.30875 -217.0625 133.4375 C-216.0415625 132.2309375 -216.0415625 132.2309375 -215 131 C-213.68 131 -212.36 131 -211 131 C-210.62875 130.071875 -210.62875 130.071875 -210.25 129.125 C-208.7557016 126.58469272 -207.75218149 125.97135817 -205 125 C-203.68 125 -202.36 125 -201 125 C-201 124.34 -201 123.68 -201 123 C-197.535 122.01 -197.535 122.01 -194 121 C-193.67 118.69 -193.34 116.38 -193 114 C-192.34 114 -191.68 114 -191 114 C-191 109.71 -191 105.42 -191 101 C-190.34 101 -189.68 101 -189 101 C-189 99.02 -189 97.04 -189 95 C-188.34 95 -187.68 95 -187 95 C-187 93.35 -187 91.7 -187 90 C-186.34 90 -185.68 90 -185 90 C-185 88.35 -185 86.7 -185 85 C-184.34 85 -183.68 85 -183 85 C-182.8453125 83.6078125 -182.8453125 83.6078125 -182.6875 82.1875 C-181.95187023 78.77685288 -181.4375559 78.24255143 -179 76 C-178.773125 75.2575 -178.54625 74.515 -178.3125 73.75 C-176.60136774 70.16477051 -174.19276629 68.35189866 -171.16015625 65.84765625 C-168.43545828 63.51712796 -166.0449962 60.94046911 -163.640625 58.28515625 C-162 57 -162 57 -158 57 C-157.67 56.01 -157.34 55.02 -157 54 C-156.01 54 -155.02 54 -154 54 C-154 53.34 -154 52.68 -154 52 C-152.02 51.67 -150.04 51.34 -148 51 C-148 50.34 -148 49.68 -148 49 C-146.35 49 -144.7 49 -143 49 C-143 48.34 -143 47.68 -143 47 C-141.35 47 -139.7 47 -138 47 C-138 46.34 -138 45.68 -138 45 C-134.7 45 -131.4 45 -128 45 C-128 44.34 -128 43.68 -128 43 C-118.76 43 -109.52 43 -100 43 C-100 43.99 -100 44.98 -100 46 C-97.36 46 -94.72 46 -92 46 C-92 46.66 -92 47.32 -92 48 C-90.02 48 -88.04 48 -86 48 C-86 48.99 -86 49.98 -86 51 C-84.35 51 -82.7 51 -81 51 C-80.8453125 50.1028125 -80.8453125 50.1028125 -80.6875 49.1875 C-79.90175967 46.68741714 -79.03081147 45.62464918 -77 44 C-76.34 44 -75.68 44 -75 44 C-75 43.01 -75 42.02 -75 41 C-74.34 41 -73.68 41 -73 41 C-72.773125 40.443125 -72.54625 39.88625 -72.3125 39.3125 C-70.23855983 35.65841494 -67.57599131 32.74421812 -63.75 30.9375 C-61.77905978 30.1346633 -61.77905978 30.1346633 -61.25 27.875 C-61.1675 27.25625 -61.085 26.6375 -61 26 C-60.34 26 -59.68 26 -59 26 C-59 25.34 -59 24.68 -59 24 C-57.35 24 -55.7 24 -54 24 C-53.79375 23.38125 -53.5875 22.7625 -53.375 22.125 C-51.46293283 19.1699871 -49.27219312 19.04431695 -46 18 C-45.67 17.01 -45.34 16.02 -45 15 C-43.68 15 -42.36 15 -41 15 C-41 14.34 -41 13.68 -41 13 C-39.35 13 -37.7 13 -36 13 C-36 12.34 -36 11.68 -36 11 C-34.68 11 -33.36 11 -32 11 C-32 10.34 -32 9.68 -32 9 C-31.01 9 -30.02 9 -29 9 C-29 8.34 -29 7.68 -29 7 C-25.37 6.67 -21.74 6.34 -18 6 C-18 5.34 -18 4.68 -18 4 C-15.69 4 -13.38 4 -11 4 C-11 3.34 -11 2.68 -11 2 C-7.37 2 -3.74 2 0 2 C0 1.34 0 0.68 0 0 Z " fill="#E53C3B" transform="translate(587,215)"/>
<path d="M0 0 C29.04 0 58.08 0 88 0 C87.67 0.99 87.34 1.98 87 3 C86.34 3 85.68 3 85 3 C84.9175 3.78375 84.835 4.5675 84.75 5.375 C84.37875 6.674375 84.37875 6.674375 84 8 C82.66666667 8.66666667 81.33333333 9.33333333 80 10 C79.32041397 12.39719432 79.32041397 12.39719432 79 15 C78.25 17.1875 78.25 17.1875 77 19 C76.154375 19.309375 75.30875 19.61875 74.4375 19.9375 C73.633125 20.288125 72.82875 20.63875 72 21 C71.25475806 23.47608101 71.25475806 23.47608101 71 26 C70.34 26.66 69.68 27.32 69 28 C68.3574765 30.06874034 68.3574765 30.06874034 68 32 C67.34 32 66.68 32 66 32 C65.67 32.99 65.34 33.98 65 35 C64.34 35 63.68 35 63 35 C63 36.32 63 37.64 63 39 C62.34 39 61.68 39 61 39 C61 39.66 61 40.32 61 41 C60.01 41.495 60.01 41.495 59 42 C58.34786708 44.02463255 58.34786708 44.02463255 58 46 C57.34 46 56.68 46 56 46 C55.67 46.99 55.34 47.98 55 49 C54.34 49 53.68 49 53 49 C53 50.32 53 51.64 53 53 C51.68 53.33 50.36 53.66 49 54 C49 54.99 49 55.98 49 57 C67.48 57 85.96 57 105 57 C103.27899083 63.88403667 98.01838525 68.23212511 92.6875 72.6875 C89.71451042 75.19470204 87.94544412 77.10004302 87 81 C86.34 81 85.68 81 85 81 C85 81.66 85 82.32 85 83 C83.35546875 84.62109375 83.35546875 84.62109375 81.1875 86.4375 C76.3420576 90.42614601 76.3420576 90.42614601 72.59765625 95.38671875 C70.83068483 98.27694829 68.8380042 100.42781461 66.4375 102.8125 C65.65246094 103.60269531 64.86742187 104.39289063 64.05859375 105.20703125 C62 107 62 107 60 107 C59.835 107.845625 59.67 108.69125 59.5 109.5625 C57.67942386 113.73465365 55.35824254 115.50255925 51.89453125 118.3359375 C49.65371263 120.30416169 48.41106027 122.38953851 47 125 C44.9375 127.3125 44.9375 127.3125 43 129 C42.34 129 41.68 129 41 129 C41 129.66 41 130.32 41 131 C40.34 131 39.68 131 39 131 C39 131.66 39 132.32 39 133 C38.34 133 37.68 133 37 133 C36.896875 133.598125 36.79375 134.19625 36.6875 134.8125 C35.90175967 137.31258286 35.03081147 138.37535082 33 140 C32.34 140 31.68 140 31 140 C30.731875 140.598125 30.46375 141.19625 30.1875 141.8125 C28.99427577 144.01054464 27.75321129 145.24678871 26 147 C25.505 147.86625 25.01 148.7325 24.5 149.625 C23 152 23 152 20 153 C20 153.66 20 154.32 20 155 C18.50390625 156.4375 18.50390625 156.4375 16.5625 158 C13.84811762 160.14525044 13.84811762 160.14525044 12 163 C11.34 163 10.68 163 10 163 C9.7525 163.598125 9.505 164.19625 9.25 164.8125 C8 167 8 167 6 168.4375 C3.79250692 169.88818687 3.79250692 169.88818687 3 172.5625 C2 175 2 175 -0.125 176.3125 C-0.74375 176.539375 -1.3625 176.76625 -2 177 C-2 177.66 -2 178.32 -2 179 C-2.66 179 -3.32 179 -4 179 C-4 179.66 -4 180.32 -4 181 C-4.66 181 -5.32 181 -6 181 C-6 181.66 -6 182.32 -6 183 C-6.66 183 -7.32 183 -8 183 C-8 183.66 -8 184.32 -8 185 C-8.66 185 -9.32 185 -10 185 C-10.0825 185.556875 -10.165 186.11375 -10.25 186.6875 C-11.24709896 189.76188846 -12.79229454 191.66242952 -15 194 C-15.99 194 -16.98 194 -18 194 C-18 194.99 -18 195.98 -18 197 C-19.875 199.1875 -19.875 199.1875 -22 201 C-22.66 201 -23.32 201 -24 201 C-24.33 201.99 -24.66 202.98 -25 204 C-25.66 204 -26.32 204 -27 204 C-26.67 202.02 -26.34 200.04 -26 198 C-25.34 198 -24.68 198 -24 198 C-23.67 196.35 -23.34 194.7 -23 193 C-22.34 193 -21.68 193 -21 193 C-20.855625 191.9275 -20.71125 190.855 -20.5625 189.75 C-20.16250558 187.08337051 -19.72408076 184.58600271 -19 182 C-18.34 182 -17.68 182 -17 182 C-17 180.68 -17 179.36 -17 178 C-16.34 178 -15.68 178 -15 178 C-14.86722656 177.38511719 -14.73445312 176.77023437 -14.59765625 176.13671875 C-14.42105469 175.32847656 -14.24445312 174.52023437 -14.0625 173.6875 C-13.80146484 172.48673828 -13.80146484 172.48673828 -13.53515625 171.26171875 C-13 169 -13 169 -12 166 C-11.34 166 -10.68 166 -10 166 C-10 164.68 -10 163.36 -10 162 C-9.34 162 -8.68 162 -8 162 C-7.87625 160.783125 -7.7525 159.56625 -7.625 158.3125 C-7.21108694 154.93520941 -6.45426549 152.10243305 -5 149 C-4.34 149 -3.68 149 -3 149 C-3 147.68 -3 146.36 -3 145 C-2.34 145 -1.68 145 -1 145 C-1 143.35 -1 141.7 -1 140 C-0.34 140 0.32 140 1 140 C1.185625 139.2265625 1.185625 139.2265625 1.375 138.4375 C2.18641628 135.27297649 3.0945913 132.13875015 4 129 C4.66 129 5.32 129 6 129 C6.0825 128.21625 6.165 127.4325 6.25 126.625 C7.24365069 121.822355 9.08713518 117.50190511 11 113 C11.66 113 12.32 113 13 113 C13.18369141 111.92685547 13.18369141 111.92685547 13.37109375 110.83203125 C14.01135375 107.94887287 14.93551556 105.41407527 16.0625 102.6875 C16.42472656 101.80449219 16.78695312 100.92148437 17.16015625 100.01171875 C17.43730469 99.34785156 17.71445312 98.68398438 18 98 C18.66 98 19.32 98 20 98 C20 96.68 20 95.36 20 94 C1.19 94 -17.62 94 -37 94 C-35.875 85 -35.875 85 -33.9375 80.5 C-33.57527344 79.6440625 -33.21304687 78.788125 -32.83984375 77.90625 C-32.56269531 77.2771875 -32.28554688 76.648125 -32 76 C-31.01 76 -30.02 76 -29 76 C-28.67 73.03 -28.34 70.06 -28 67 C-27.34 67 -26.68 67 -26 67 C-25.855625 66.113125 -25.71125 65.22625 -25.5625 64.3125 C-25.08980022 61.52882354 -24.56929815 58.76516243 -24 56 C-23.34 56 -22.68 56 -22 56 C-22 54.68 -22 53.36 -22 52 C-21.34 52 -20.68 52 -20 52 C-20 50.35 -20 48.7 -20 47 C-19.34 47 -18.68 47 -18 47 C-17.95101562 46.36191406 -17.90203125 45.72382812 -17.8515625 45.06640625 C-17.77679687 44.24011719 -17.70203125 43.41382813 -17.625 42.5625 C-17.55539062 41.73878906 -17.48578125 40.91507813 -17.4140625 40.06640625 C-17.27742187 39.38449219 -17.14078125 38.70257812 -17 38 C-16.01 37.505 -16.01 37.505 -15 37 C-14.34786708 34.97536745 -14.34786708 34.97536745 -14 33 C-13.34 33 -12.68 33 -12 33 C-11.95101562 32.28972656 -11.90203125 31.57945312 -11.8515625 30.84765625 C-11.77679687 29.92855469 -11.70203125 29.00945313 -11.625 28.0625 C-11.55539062 27.14597656 -11.48578125 26.22945312 -11.4140625 25.28515625 C-11.27742187 24.53105469 -11.14078125 23.77695312 -11 23 C-10.34 22.67 -9.68 22.34 -9 22 C-8.31270746 19.88153715 -8.31270746 19.88153715 -7.875 17.4375 C-7.70742188 16.61121094 -7.53984375 15.78492188 -7.3671875 14.93359375 C-7.24601563 14.29550781 -7.12484375 13.65742188 -7 13 C-6.34 13 -5.68 13 -5 13 C-4.855625 12.278125 -4.71125 11.55625 -4.5625 10.8125 C-4.04166667 8.20833333 -3.52083333 5.60416667 -3 3 C-2.01 3 -1.02 3 0 3 C0 2.01 0 1.02 0 0 Z " fill="#F6F5F5" transform="translate(533,492)"/>
<path d="M0 0 C40.26 0 80.52 0 122 0 C122 0.99 122 1.98 122 3 C121.01 3 120.02 3 119 3 C119 2.34 119 1.68 119 1 C79.73 1 40.46 1 0 1 C0 0.67 0 0.34 0 0 Z " fill="#250709" transform="translate(411,492)"/>
<path d="M0 0 C0.70511719 0.1134375 1.41023438 0.226875 2.13671875 0.34375 C0.47005208 2.01041667 -1.19661458 3.67708333 -2.86328125 5.34375 C-3.52328125 6.045 -4.18328125 6.74625 -4.86328125 7.46875 C-7.05860189 9.5268631 -9.17221982 10.99821929 -11.86328125 12.34375 C-12.52328125 12.01375 -13.18328125 11.68375 -13.86328125 11.34375 C-12.14894867 9.4943124 -10.41916116 7.66545892 -8.67578125 5.84375 C-8.19302734 5.31910156 -7.71027344 4.79445313 -7.21289062 4.25390625 C-4.83009709 1.7911532 -3.46580788 0.41608608 0 0 Z " fill="#D43B38" transform="translate(426.86328125,272.65625)"/>
<path d="M0 0 C0.33 0.99 0.66 1.98 1 3 C-1.11905463 5.17277714 -3.24472878 7.33826908 -5.375 9.5 C-5.97828125 10.12003906 -6.5815625 10.74007812 -7.203125 11.37890625 C-7.78320312 11.96542969 -8.36328125 12.55195312 -8.9609375 13.15625 C-9.49509277 13.70087891 -10.02924805 14.24550781 -10.57958984 14.80664062 C-12 16 -12 16 -14 16 C-14.33 16.99 -14.66 17.98 -15 19 C-14.69894935 15.38739215 -14.29131912 14.25490423 -11.5 11.8125 C-10.675 11.214375 -9.85 10.61625 -9 10 C-8.67 9.34 -8.34 8.68 -8 8 C-7.34 8 -6.68 8 -6 8 C-5.7525 7.4225 -5.505 6.845 -5.25 6.25 C-3.83316683 3.6997003 -2.12372463 1.98214299 0 0 Z " fill="#424547" transform="translate(551,647)"/>
<path d="M0 0 C0.66 0.33 1.32 0.66 2 1 C1.56429687 1.49628906 1.12859375 1.99257813 0.6796875 2.50390625 C-3.24273979 6.97819019 -7.13544286 11.47564042 -11 16 C-11.66 15.67 -12.32 15.34 -13 15 C-10.41056039 9.82112077 -6.36813411 5.73749054 -2 2 C-1.34 2 -0.68 2 0 2 C0 1.34 0 0.68 0 0 Z " fill="#3A3C3D" transform="translate(618,573)"/>
<path d="M0 0 C0.33 0 0.66 0 1 0 C1 1.98 1 3.96 1 6 C0.34 6 -0.32 6 -1 6 C-1 7.32 -1 8.64 -1 10 C-1.66 10 -2.32 10 -3 10 C-2.67 11.98 -2.34 13.96 -2 16 C-2.66 16 -3.32 16 -4 16 C-4.33 16.66 -4.66 17.32 -5 18 C-5.66 17.67 -6.32 17.34 -7 17 C-6.01 14.36 -5.02 11.72 -4 9 C-3.34 9 -2.68 9 -2 9 C-2 7.68 -2 6.36 -2 5 C-1.34 5 -0.68 5 0 5 C0 3.35 0 1.7 0 0 Z " fill="#A8A8A7" transform="translate(532,632)"/>
<path d="M0 0 C7.92 0 15.84 0 24 0 C24 0.99 24 1.98 24 3 C23.01 3 22.02 3 21 3 C21 2.34 21 1.68 21 1 C14.07 1 7.14 1 0 1 C0 0.67 0 0.34 0 0 Z " fill="#251011" transform="translate(509,492)"/>
<path d="M0 0 C0.99 0 1.98 0 3 0 C2.67 1.65 2.34 3.3 2 5 C1.34 5 0.68 5 0 5 C-0.33 5.99 -0.66 6.98 -1 8 C-1.66 8 -2.32 8 -3 8 C-2.67 6.02 -2.34 4.04 -2 2 C-1.34 2 -0.68 2 0 2 C0 1.34 0 0.68 0 0 Z " fill="#C8C9C7" transform="translate(509,688)"/>
<path d="M0 0 C0.66 0.33 1.32 0.66 2 1 C0.37660195 2.70884005 -1.29319053 4.37446717 -3 6 C-3.66 6 -4.32 6 -5 6 C-5.33 6.99 -5.66 7.98 -6 9 C-5.69381595 5.32579134 -5.24228216 4.21864487 -2.4375 1.6875 C-1.633125 1.130625 -0.82875 0.57375 0 0 Z " fill="#2D2E2F" transform="translate(542,657)"/>
</svg>
